<svg width="28" height="27" viewBox="0 0 28 27" fill="none" xmlns="http://www.w3.org/2000/svg">
<path fill-rule="evenodd" clip-rule="evenodd" d="M5.43321 1.15561C5.49507 1.34123 5.51975 1.53723 5.50584 1.7324C5.49193 1.92756 5.4397 2.11808 5.35214 2.29305C5.26458 2.46803 5.14341 2.62405 4.99554 2.75218C4.84767 2.88031 4.67601 2.97806 4.49035 3.03983L3.27491 3.44349V9.81858C3.27491 10.6087 3.58877 11.3664 4.14745 11.9251C4.70612 12.4837 5.46384 12.7976 6.25393 12.7976H7.74343C8.53352 12.7976 9.29124 12.4837 9.84992 11.9251C10.4086 11.3664 10.7224 10.6087 10.7224 9.81858V3.44349L9.50701 3.03983C9.13212 2.915 8.82217 2.64635 8.64535 2.29299C8.46853 1.93963 8.43932 1.5305 8.56415 1.15561C8.68899 0.780711 8.95763 0.470761 9.31099 0.293941C9.66436 0.117121 10.0735 0.0879149 10.4484 0.212748L11.6653 0.617894C12.2585 0.815803 12.7743 1.19534 13.1398 1.70274C13.5052 2.21014 13.7017 2.81967 13.7015 3.44498V9.81858C13.7016 11.2699 13.172 12.6713 12.2121 13.7598C11.2523 14.8483 9.92809 15.549 8.48819 15.7304V19.8728C8.48819 20.7616 8.84128 21.614 9.46979 22.2425C10.0983 22.8711 10.9507 23.2241 11.8396 23.2241C12.7284 23.2241 13.5809 22.8711 14.2094 22.2425C14.8379 21.614 15.191 20.7616 15.191 19.8728V14.2871C15.191 12.9045 15.7402 11.5784 16.7179 10.6008C17.6956 9.62308 19.0216 9.07383 20.4042 9.07383C21.7869 9.07383 23.1129 9.62308 24.0906 10.6008C25.0683 11.5784 25.6175 12.9045 25.6175 14.2871V18.3207C26.4016 18.6629 27.0439 19.2646 27.4365 20.0247C27.8291 20.7848 27.948 21.6569 27.7732 22.4944C27.5984 23.3318 27.1406 24.0836 26.4768 24.6232C25.8129 25.1628 24.9835 25.4573 24.128 25.4573C23.2725 25.4573 22.4431 25.1628 21.7792 24.6232C21.1154 24.0836 20.6576 23.3318 20.4828 22.4944C20.308 21.6569 20.4269 20.7848 20.8195 20.0247C21.2121 19.2646 21.8544 18.6629 22.6385 18.3207V14.2871C22.6385 13.6945 22.4031 13.1262 21.9841 12.7072C21.5651 12.2882 20.9968 12.0528 20.4042 12.0528C19.8117 12.0528 19.2434 12.2882 18.8244 12.7072C18.4054 13.1262 18.17 13.6945 18.17 14.2871V19.8728C18.17 21.5517 17.503 23.1618 16.3159 24.349C15.1287 25.5362 13.5185 26.2032 11.8396 26.2032C10.1607 26.2032 8.55049 25.5362 7.36331 24.349C6.17613 23.1618 5.50917 21.5517 5.50917 19.8728V15.7304C4.06928 15.549 2.7451 14.8483 1.78522 13.7598C0.825342 12.6713 0.295763 11.2699 0.295898 9.81858V3.44349C0.296061 2.81826 0.492939 2.20892 0.858646 1.7018C1.22435 1.19467 1.74035 0.815468 2.33354 0.617894L3.54898 0.212748C3.73461 0.150891 3.9306 0.126212 4.12577 0.140121C4.32094 0.154031 4.51145 0.206257 4.68643 0.293815C4.86141 0.381373 5.01742 0.502548 5.14556 0.650417C5.27369 0.798286 5.37144 0.969951 5.43321 1.15561ZM24.8728 21.7346C24.8728 21.9322 24.7943 22.1216 24.6546 22.2613C24.515 22.4009 24.3255 22.4794 24.128 22.4794C23.9305 22.4794 23.7411 22.4009 23.6014 22.2613C23.4617 22.1216 23.3833 21.9322 23.3833 21.7346C23.3833 21.5371 23.4617 21.3477 23.6014 21.208C23.7411 21.0683 23.9305 20.9899 24.128 20.9899C24.3255 20.9899 24.515 21.0683 24.6546 21.208C24.7943 21.3477 24.8728 21.5371 24.8728 21.7346Z" fill="#6B7280"/>
</svg>
