<svg width="44" height="50" viewBox="0 0 44 50" fill="none" xmlns="http://www.w3.org/2000/svg">
<path d="M15.7309 42.2529H29.1989V42.9998C29.1989 46.7184 26.1836 49.7337 22.4649 49.7337C18.7462 49.7337 15.7309 46.7184 15.7309 42.9998V42.2529Z" fill="url(#paint0_linear_1_1477)"/>
<path d="M43.0702 35.111L39.3815 31.4233C38.4753 30.5172 37.9662 29.2884 37.9661 28.007V21.329C37.9661 13.9004 32.632 7.71807 25.585 6.40122V3.38783C25.585 1.66424 24.187 0.266235 22.4634 0.266235C20.7398 0.266235 19.3418 1.66424 19.3418 3.38783V6.40122C12.2957 7.71807 6.96168 13.9004 6.96168 21.329V28.007C6.96168 29.2881 6.45252 30.517 5.54725 31.4233L1.85852 35.112C1.57519 35.3953 1.35044 35.7316 1.19711 36.1018C1.04377 36.472 0.964844 36.8687 0.964844 37.2694C0.964844 38.9543 2.33097 40.3204 4.01591 40.3204H40.9138C42.5987 40.3204 43.9648 38.9543 43.9648 37.2694C43.9648 36.4598 43.6431 35.6839 43.0712 35.112L43.0702 35.111Z" fill="url(#paint1_linear_1_1477)"/>
<defs>
<linearGradient id="paint0_linear_1_1477" x1="-5.00488" y1="34.3817" x2="12.4065" y2="59.9742" gradientUnits="userSpaceOnUse">
<stop stop-color="#2699DA"/>
<stop offset="1" stop-color="#6EDCD4"/>
</linearGradient>
<linearGradient id="paint1_linear_1_1477" x1="22.4648" y1="0.266235" x2="38.0925" y2="36.1857" gradientUnits="userSpaceOnUse">
<stop stop-color="#2699DA"/>
<stop offset="1" stop-color="#6EDCD4"/>
</linearGradient>
</defs>
</svg>
