<svg width="26" height="27" viewBox="0 0 26 27" fill="none" xmlns="http://www.w3.org/2000/svg">
<path fill-rule="evenodd" clip-rule="evenodd" d="M4.67541 5.2293C3.97557 5.2293 3.41868 5.76386 3.41868 6.41109V22.9561C3.41868 23.6033 3.97557 24.1379 4.67541 24.1379H22.184C22.8838 24.1379 23.4407 23.6033 23.4407 22.9561V6.41109C23.4407 5.76386 22.8838 5.2293 22.184 5.2293H4.67541ZM0.929688 6.41109C0.929688 4.44758 2.61246 2.86572 4.67541 2.86572H22.184C24.2469 2.86572 25.9297 4.44758 25.9297 6.41109V22.9561C25.9297 24.9196 24.2469 26.5015 22.184 26.5015H4.67541C2.61246 26.5015 0.929688 24.9196 0.929688 22.9561V6.41109Z" fill="#1AA5C0"/>
<path fill-rule="evenodd" clip-rule="evenodd" d="M18.4296 0.501465C19.1169 0.501465 19.674 1.03057 19.674 1.68325V6.41041C19.674 7.06309 19.1169 7.59219 18.4296 7.59219C17.7422 7.59219 17.1851 7.06309 17.1851 6.41041V1.68325C17.1851 1.03057 17.7422 0.501465 18.4296 0.501465Z" fill="#1AA5C0"/>
<path fill-rule="evenodd" clip-rule="evenodd" d="M8.43004 0.501465C9.11736 0.501465 9.67454 1.03057 9.67454 1.68325V6.41041C9.67454 7.06309 9.11736 7.59219 8.43004 7.59219C7.74273 7.59219 7.18555 7.06309 7.18555 6.41041V1.68325C7.18555 1.03057 7.74273 0.501465 8.43004 0.501465Z" fill="#1AA5C0"/>
<path fill-rule="evenodd" clip-rule="evenodd" d="M0.929688 11.1382C0.929688 10.4855 1.48687 9.95642 2.17418 9.95642H24.6852C25.3725 9.95642 25.9297 10.4855 25.9297 11.1382C25.9297 11.7909 25.3725 12.32 24.6852 12.32H2.17418C1.48687 12.32 0.929688 11.7909 0.929688 11.1382Z" fill="#1AA5C0"/>
</svg>
