<svg width="26" height="26" viewBox="0 0 26 26" fill="none" xmlns="http://www.w3.org/2000/svg">
<path fill-rule="evenodd" clip-rule="evenodd" d="M13.0146 3.12478C7.35546 3.12478 2.77727 7.70893 2.77727 13.3521C2.77727 18.9952 7.35546 23.5793 13.0146 23.5793C18.6738 23.5793 23.252 18.9952 23.252 13.3521C23.252 7.70893 18.6738 3.12478 13.0146 3.12478ZM0.514648 13.3521C0.514648 6.44324 6.11632 0.852051 13.0146 0.852051C19.913 0.852051 25.5146 6.44324 25.5146 13.3521C25.5146 20.2609 19.913 25.8521 13.0146 25.8521C6.11632 25.8521 0.514648 20.2609 0.514648 13.3521Z" fill="#1AA5C0"/>
<path fill-rule="evenodd" clip-rule="evenodd" d="M13.0147 5.39709C13.6395 5.39709 14.146 5.90586 14.146 6.53346V12.6478L18.0662 14.607C18.6255 14.8866 18.8534 15.5687 18.5751 16.1306C18.2967 16.6925 17.6176 16.9213 17.0583 16.6418L12.5108 14.369C12.1264 14.1769 11.8834 13.7829 11.8834 13.3516V6.53346C11.8834 5.90586 12.3899 5.39709 13.0147 5.39709Z" fill="#1AA5C0"/>
</svg>
