<svg width="28" height="24" viewBox="0 0 28 24" fill="none" xmlns="http://www.w3.org/2000/svg">
<path d="M13.9707 2.51558C8.25524 -2.48345 0.988075 1.90884 0.868909 7.86329C0.838542 9.3808 1.27659 10.859 2.14855 12.2217H7.80029L8.80555 10.5462C9.09745 10.0598 9.80384 10.0441 10.1123 10.5291L12.2332 13.862L15.3249 7.33521C15.5946 6.76571 16.3981 6.74763 16.6955 7.29988L19.3457 12.2217H25.793C30.5689 4.75735 21.13 -3.74613 13.9707 2.51558Z" fill="#6B7280"/>
<path d="M18.2104 13.354L16.0629 9.36572L13.026 15.7767C12.7677 16.3221 12.0078 16.3695 11.6838 15.8603L9.48328 12.4024L8.8937 13.385C8.82545 13.4988 8.72891 13.5929 8.61349 13.6583C8.49806 13.7236 8.36768 13.758 8.23504 13.758H3.36353C3.51623 13.9178 2.70235 13.1055 13.4288 23.7764C13.7283 24.0745 14.2126 24.0745 14.5123 23.7764C25.0736 13.2697 24.4251 13.9175 24.5775 13.758H18.8867C18.748 13.758 18.6119 13.7204 18.4928 13.6493C18.3737 13.5782 18.2761 13.4761 18.2104 13.354Z" fill="#6B7280"/>
</svg>
