<svg width="41" height="36" viewBox="0 0 41 36" fill="none" xmlns="http://www.w3.org/2000/svg">
<path d="M17.4297 11.2196C19.206 11.2196 20.646 9.77965 20.646 8.00331C20.646 6.22698 19.206 4.78698 17.4297 4.78698C15.6533 4.78698 14.2133 6.22698 14.2133 8.00331C14.2133 9.77965 15.6533 11.2196 17.4297 11.2196Z" fill="white"/>
<path d="M24.0818 19.8817V18.0907C24.0818 16.6658 23.5157 15.2992 22.5082 14.2916C21.5006 13.2841 20.134 12.718 18.7091 12.718H16.0227C14.5977 12.718 13.2312 13.2841 12.2236 14.2916C11.216 15.2992 10.6499 16.6658 10.6499 18.0907V19.8817H24.0818Z" fill="white"/>
<path d="M3.48618 19.8818V4.65905C3.48759 4.1845 3.67673 3.7298 4.01229 3.39425C4.34784 3.05869 4.80255 2.86955 5.27709 2.86813H29.4544C29.929 2.86955 30.3837 3.05869 30.7192 3.39425C31.0548 3.7298 31.2439 4.1845 31.2453 4.65905V6.44996C32.1635 6.45147 33.0738 6.61987 33.9317 6.94694V4.65905C33.9317 3.4716 33.46 2.33278 32.6203 1.49313C31.7807 0.653475 30.6419 0.181763 29.4544 0.181763H5.27709C4.08964 0.181763 2.95082 0.653475 2.11117 1.49313C1.27152 2.33278 0.799805 3.4716 0.799805 4.65905V22.5682C0.799805 23.7556 1.27152 24.8945 2.11117 25.7341C2.95082 26.5738 4.08964 27.0455 5.27709 27.0455H12.4407V28.8364H7.66796C7.23626 28.8359 6.80871 28.9206 6.40978 29.0856C6.01085 29.2506 5.64838 29.4926 5.34312 29.7979C5.03787 30.1031 4.79582 30.4656 4.63083 30.8645C4.46584 31.2635 4.38116 31.691 4.38163 32.1227C4.38305 32.4381 4.50898 32.7402 4.73202 32.9633C4.95506 33.1863 5.25716 33.3123 5.57259 33.3137H20.4999V27.9409C20.497 25.6506 21.2988 23.432 22.7654 21.6727H5.27709C4.80255 21.6713 4.34784 21.4822 4.01229 21.1466C3.67673 20.8111 3.48759 20.3564 3.48618 19.8818ZM17.3658 23.0159C17.6314 23.0159 17.8911 23.0947 18.112 23.2423C18.3329 23.3899 18.505 23.5997 18.6067 23.8451C18.7084 24.0905 18.735 24.3606 18.6831 24.6211C18.6313 24.8817 18.5034 25.121 18.3155 25.3089C18.1277 25.4967 17.8884 25.6246 17.6278 25.6765C17.3672 25.7283 17.0972 25.7017 16.8517 25.6C16.6063 25.4984 16.3965 25.3262 16.2489 25.1053C16.1013 24.8844 16.0226 24.6248 16.0226 24.3591C16.0226 24.0029 16.1641 23.6612 16.416 23.4093C16.6679 23.1574 17.0095 23.0159 17.3658 23.0159Z" fill="white"/>
<path d="M31.3184 17.9447C33.9829 17.9447 36.1429 15.7847 36.1429 13.1202C36.1429 10.4557 33.9829 8.29568 31.3184 8.29568C28.6539 8.29568 26.4939 10.4557 26.4939 13.1202C26.4939 15.7847 28.6539 17.9447 31.3184 17.9447Z" fill="white"/>
<path d="M37.5134 35.9999H24.977C24.2646 35.9999 23.5813 35.7169 23.0775 35.2131C22.5737 34.7093 22.2907 34.026 22.2907 33.3136V27.9408C22.293 25.8041 23.1429 23.7557 24.6537 22.2448C26.1646 20.7339 28.2131 19.8841 30.3498 19.8817H32.1407C34.2774 19.8841 36.3259 20.7339 37.8367 22.2448C39.3476 23.7557 40.1974 25.8041 40.1998 27.9408V33.3136C40.1998 34.026 39.9168 34.7093 39.413 35.2131C38.9092 35.7169 38.2259 35.9999 37.5134 35.9999Z" fill="white"/>
</svg>
