<svg width="44" height="44" viewBox="0 0 44 44" fill="none" xmlns="http://www.w3.org/2000/svg">
<g filter="url(#filter0_d_1_1627)">
<rect x="4" y="2" width="36" height="36" rx="18" fill="#858585"/>
</g>
<path d="M22 27H31" stroke="white" stroke-width="2" stroke-linecap="round" stroke-linejoin="round"/>
<path d="M26.5 10.5C26.8978 10.1022 27.4374 9.87866 28 9.87866C28.2786 9.87866 28.5544 9.93353 28.8118 10.0401C29.0692 10.1467 29.303 10.303 29.5 10.5C29.697 10.697 29.8532 10.9308 29.9598 11.1882C30.0665 11.4456 30.1213 11.7214 30.1213 12C30.1213 12.2786 30.0665 12.5544 29.9598 12.8118C29.8532 13.0691 29.697 13.303 29.5 13.5L17 26L13 27L14 23L26.5 10.5Z" stroke="white" stroke-width="2" stroke-linecap="round" stroke-linejoin="round"/>
<defs>
<filter id="filter0_d_1_1627" x="0" y="0" width="44" height="44" filterUnits="userSpaceOnUse" color-interpolation-filters="sRGB">
<feFlood flood-opacity="0" result="BackgroundImageFix"/>
<feColorMatrix in="SourceAlpha" type="matrix" values="0 0 0 0 0 0 0 0 0 0 0 0 0 0 0 0 0 0 127 0" result="hardAlpha"/>
<feOffset dy="2"/>
<feGaussianBlur stdDeviation="2"/>
<feComposite in2="hardAlpha" operator="out"/>
<feColorMatrix type="matrix" values="0 0 0 0 0 0 0 0 0 0 0 0 0 0 0 0 0 0 0.25 0"/>
<feBlend mode="normal" in2="BackgroundImageFix" result="effect1_dropShadow_1_1627"/>
<feBlend mode="normal" in="SourceGraphic" in2="effect1_dropShadow_1_1627" result="shape"/>
</filter>
</defs>
</svg>
