<svg width="26" height="25" viewBox="0 0 26 25" fill="none" xmlns="http://www.w3.org/2000/svg">
<path d="M24.8529 2.26308e-06H2.0068C1.80911 -0.000398657 1.61514 0.0524771 1.44629 0.152797C1.27744 0.253118 1.14028 0.396985 1.04993 0.56853C0.958352 0.742453 0.917788 0.937669 0.932707 1.13265C0.947627 1.32763 1.01745 1.51481 1.13448 1.67354L9.5044 13.1764C9.5072 13.1804 9.51026 13.1841 9.51305 13.1881C9.81721 13.5887 9.98177 14.0738 9.98258 14.5723V23.9505C9.98171 24.088 10.0087 24.2243 10.062 24.3515C10.1152 24.4788 10.1938 24.5946 10.293 24.6921C10.3924 24.7896 10.5105 24.867 10.6406 24.9198C10.7707 24.9727 10.9102 24.9999 11.0511 25C11.1958 24.9998 11.339 24.9717 11.4726 24.9175L16.1759 23.1681C16.5971 23.0424 16.8769 22.6545 16.8769 22.1876V14.5723C16.8777 14.0739 17.0421 13.5888 17.3461 13.1881C17.3489 13.1841 17.3519 13.1804 17.3547 13.1764L25.7249 1.67329C25.8419 1.51466 25.9117 1.32758 25.9267 1.13269C25.9416 0.937797 25.901 0.742672 25.8095 0.568847C25.7192 0.397245 25.5822 0.253305 25.4134 0.152922C25.2446 0.0525393 25.0506 -0.000381832 24.8529 2.26308e-06Z" fill="#50799E"/>
</svg>
