<svg width="48" height="47" viewBox="0 0 48 47" fill="none" xmlns="http://www.w3.org/2000/svg">
<g clip-path="url(#clip0_1_1658)">
<path d="M37.3878 14.4954L35.9712 16.9492L34.7443 16.2408L24.8276 33.417C23.2629 36.1273 19.7971 37.0559 17.0868 35.4912C14.3765 33.9264 13.4479 30.4606 15.0127 27.7504L24.9293 10.5742L23.7025 9.86585L25.1191 7.41211L37.3878 14.4954ZM23.272 27.6114C22.5944 27.2202 21.728 27.4523 21.3368 28.1299C20.9456 28.8075 21.1778 29.6739 21.8554 30.0651C22.533 30.4564 23.3993 30.2242 23.7906 29.5466C24.1818 28.869 23.9496 28.0026 23.272 27.6114ZM22.9433 22.5141C22.2657 22.1229 21.3993 22.3551 21.0081 23.0327C20.6169 23.7103 20.849 24.5767 21.5266 24.9679C22.2042 25.3591 23.0706 25.1269 23.4618 24.4493C23.853 23.7717 23.6209 22.9053 22.9433 22.5141ZM32.2906 14.8242L27.3831 11.9908L24.5497 16.8983L29.4572 19.7317L32.2906 14.8242Z" fill="#6B7280"/>
</g>
<defs>
<clipPath id="clip0_1_1658">
<rect width="34" height="34" fill="white" transform="translate(17.9478) rotate(30)"/>
</clipPath>
</defs>
</svg>
