<svg width="19" height="18" viewBox="0 0 19 18" fill="none" xmlns="http://www.w3.org/2000/svg">
<path d="M9.5625 1.10791C9.56276 1.40249 9.68143 1.68492 9.8924 1.89309L15.6447 7.57603C15.8188 7.74799 15.9569 7.95216 16.0512 8.17687C16.1454 8.40158 16.1939 8.64242 16.1939 8.88565C16.1939 9.12888 16.1454 9.36972 16.0512 9.59443C15.9569 9.81914 15.8188 10.0233 15.6447 10.1953L9.8999 15.8745C9.69503 16.0841 9.58167 16.3647 9.58424 16.6561C9.5868 16.9474 9.70508 17.2261 9.9136 17.4321C10.1221 17.6381 10.4042 17.7549 10.6991 17.7575C10.994 17.76 11.2781 17.648 11.4902 17.4456L17.235 11.7708C18.0074 11.0062 18.4413 9.97002 18.4413 8.88972C18.4413 7.80943 18.0074 6.77326 17.235 6.00863L11.4827 0.325691C11.3256 0.17042 11.1255 0.0645905 10.9076 0.0215588C10.6898 -0.0214748 10.4639 0.000217438 10.2584 0.0838966C10.053 0.167578 9.87729 0.309496 9.75344 0.491741C9.62958 0.673988 9.56314 0.888395 9.5625 1.10791Z" fill="white"/>
<path d="M0 1.10791C0.0002625 1.40249 0.118926 1.68492 0.329902 1.89309L6.0822 7.57603C6.25631 7.74799 6.39443 7.95216 6.48866 8.17687C6.58289 8.40158 6.63139 8.64242 6.63139 8.88565C6.63139 9.12888 6.58289 9.36972 6.48866 9.59443C6.39443 9.81914 6.25631 10.0233 6.0822 10.1953L0.3374 15.8745C0.132533 16.0841 0.0191727 16.3647 0.0217352 16.6561C0.0242977 16.9474 0.142578 17.2261 0.3511 17.4321C0.559623 17.6381 0.841703 17.7549 1.13659 17.7575C1.43147 17.76 1.71556 17.648 1.92768 17.4456L7.67248 11.7708C8.44493 11.0062 8.87875 9.97002 8.87875 8.88972C8.87875 7.80943 8.44493 6.77326 7.67248 6.00863L1.92018 0.325691C1.76312 0.17042 1.56302 0.0645905 1.34514 0.0215588C1.12725 -0.0214748 0.901352 0.000217438 0.695935 0.0838966C0.490519 0.167578 0.314795 0.309496 0.190937 0.491741C0.0670796 0.673988 0.000639034 0.888395 0 1.10791Z" fill="white"/>
</svg>
