<svg width="70" height="70" viewBox="0 0 70 70" fill="none" xmlns="http://www.w3.org/2000/svg">
<g filter="url(#filter0_d_1_1482)">
<rect x="4.92969" y="4" width="60" height="60" rx="8.0545" fill="#F6FCFF"/>
</g>
<path d="M44.9297 21.1429C44.9297 19.9594 44.0342 19 42.9297 19H16.9297C15.8252 19 14.9297 19.9594 14.9297 21.1429C14.9297 22.3263 15.8252 23.2857 16.9297 23.2857H42.9297C44.0342 23.2857 44.9297 22.3262 44.9297 21.1429ZM16.9297 31.8571H52.9297C54.0342 31.8571 54.9297 32.8167 54.9297 34C54.9297 35.1834 54.0342 36.1429 52.9297 36.1429H16.9297C15.8252 36.1429 14.9297 35.1834 14.9297 34C14.9297 32.8167 15.8252 31.8571 16.9297 31.8571ZM16.9297 44.7143H34.9297C36.0341 44.7143 36.9297 45.6737 36.9297 46.8571C36.9297 48.0405 36.0341 49 34.9297 49H16.9297C15.8252 49 14.9297 48.0405 14.9297 46.8571C14.9297 45.6737 15.8252 44.7143 16.9297 44.7143Z" fill="#4D769B"/>
<defs>
<filter id="filter0_d_1_1482" x="0.129687" y="0.2" width="69.6" height="69.6" filterUnits="userSpaceOnUse" color-interpolation-filters="sRGB">
<feFlood flood-opacity="0" result="BackgroundImageFix"/>
<feColorMatrix in="SourceAlpha" type="matrix" values="0 0 0 0 0 0 0 0 0 0 0 0 0 0 0 0 0 0 127 0" result="hardAlpha"/>
<feOffset dy="1"/>
<feGaussianBlur stdDeviation="2.4"/>
<feComposite in2="hardAlpha" operator="out"/>
<feColorMatrix type="matrix" values="0 0 0 0 0 0 0 0 0 0 0 0 0 0 0 0 0 0 0.16 0"/>
<feBlend mode="normal" in2="BackgroundImageFix" result="effect1_dropShadow_1_1482"/>
<feBlend mode="normal" in="SourceGraphic" in2="effect1_dropShadow_1_1482" result="shape"/>
</filter>
</defs>
</svg>
