<svg width="49" height="48" viewBox="0 0 49 48" fill="none" xmlns="http://www.w3.org/2000/svg">
<rect x="48.9297" y="48" width="48" height="48" rx="6" transform="rotate(-180 48.9297 48)" fill="#50799E"/>
<path d="M31.306 21.8946C31.1951 21.7786 31.0724 21.6806 30.9449 21.5954L22.3902 12.7004C21.5553 11.8331 20.2022 11.8327 19.3668 12.7008C18.5319 13.5686 18.5319 14.976 19.3668 15.8446L26.7347 23.505L19.3296 31.2058C18.4943 32.0731 18.4943 33.481 19.3296 34.3496C19.7473 34.783 20.294 35 20.8407 35C21.3874 35 21.9353 34.783 22.3518 34.3487L30.9449 25.4147C31.0724 25.3295 31.1947 25.2319 31.306 25.1154C31.7336 24.6708 31.9386 24.0871 31.9291 23.505C31.939 22.9225 31.7336 22.338 31.306 21.8946Z" fill="white"/>
</svg>
