<svg width="25" height="24" viewBox="0 0 25 24" fill="none" xmlns="http://www.w3.org/2000/svg">
<path d="M18.1595 12.0426C17.7015 11.8247 17.2304 11.6356 16.7489 11.4763C18.2997 10.3123 19.3047 8.45883 19.3047 6.375C19.3047 2.85984 16.4449 0 12.9297 0C9.41447 0 6.55467 2.85984 6.55467 6.375C6.55467 8.46113 7.56192 10.3164 9.11559 11.4802C7.69209 11.9489 6.35639 12.6781 5.18733 13.6397C3.04364 15.403 1.55315 17.8625 0.990513 20.5651C0.814169 21.412 1.02544 22.2818 1.57003 22.9515C2.11195 23.6178 2.91553 24 3.77465 24H15.3203C15.8381 24 16.2578 23.5803 16.2578 23.0625C16.2578 22.5447 15.8381 22.125 15.3203 22.125H3.77465C3.37444 22.125 3.13298 21.9016 3.0247 21.7685C2.83772 21.5385 2.76534 21.2393 2.82614 20.9473C3.79903 16.2741 7.92103 12.8603 12.6811 12.7452C12.8476 12.7517 13.0142 12.7516 13.1806 12.7451C14.6394 12.7793 16.0424 13.1123 17.3546 13.7361C17.8222 13.9583 18.3815 13.7595 18.6037 13.2918C18.826 12.8242 18.6272 12.2649 18.1595 12.0426ZM13.1583 10.8692C13.0065 10.8664 12.8546 10.8665 12.7028 10.8693C10.3265 10.7508 8.42967 8.78025 8.42967 6.375C8.42967 3.89367 10.4483 1.875 12.9297 1.875C15.411 1.875 17.4297 3.89367 17.4297 6.375C17.4297 8.77964 15.5338 10.7498 13.1583 10.8692Z" fill="white"/>
<path d="M23.9921 18.6094H21.4139V16.0312C21.4139 15.5135 20.9942 15.0938 20.4764 15.0938C19.9587 15.0938 19.5389 15.5135 19.5389 16.0312V18.6094H16.9608C16.443 18.6094 16.0233 19.0291 16.0233 19.5469C16.0233 20.0647 16.443 20.4844 16.9608 20.4844H19.5389V23.0625C19.5389 23.5803 19.9587 24 20.4764 24C20.9942 24 21.4139 23.5803 21.4139 23.0625V20.4844H23.9921C24.5098 20.4844 24.9296 20.0647 24.9296 19.5469C24.9296 19.0291 24.5098 18.6094 23.9921 18.6094Z" fill="white"/>
</svg>
