<svg width="58" height="57" viewBox="0 0 58 57" fill="none" xmlns="http://www.w3.org/2000/svg">
<path d="M31.6064 19.9497C31.6064 24.0751 28.2629 27.4187 24.1374 27.4187C20.012 27.4187 16.6684 24.0751 16.6684 19.9497C16.6684 15.8243 20.012 12.4807 24.1374 12.4807C28.2621 12.4807 31.6064 15.8251 31.6064 19.9497ZM55.9041 54.9744C54.9323 55.947 53.6575 56.4332 52.3837 56.4332C51.1096 56.4332 49.835 55.947 48.8632 54.9744C48.8632 54.9744 36.1808 42.2787 36.0805 42.1542C32.5317 44.419 28.3202 45.7368 23.798 45.7368C11.1681 45.7369 0.929688 35.4984 0.929688 22.8684C0.929688 10.2384 11.1688 0 23.7981 0C36.4275 0 46.6666 10.2384 46.6666 22.8683C46.6666 27.3904 45.3486 31.6021 43.084 35.1508C43.2085 35.2501 55.9042 47.9335 55.9042 47.9335C57.8492 49.8773 57.8492 53.0299 55.9041 54.9744ZM41.9022 22.8683C41.9022 12.8699 33.7966 4.7643 23.7981 4.7643C13.7997 4.7643 5.6941 12.8699 5.6941 22.8683C5.6941 28.6385 8.39698 33.7748 12.6021 37.0902C13.1489 33.037 16.6139 29.9092 20.8171 29.9092H27.4562C31.4871 29.9092 34.844 32.7839 35.5957 36.5938C39.4548 33.2735 41.9022 28.3582 41.9022 22.8683Z" fill="#50799E"/>
<circle cx="24.5707" cy="19.0652" r="8.38872" fill="#1AA5C0"/>
</svg>
