<svg width="36" height="35" viewBox="0 0 36 35" fill="none" xmlns="http://www.w3.org/2000/svg">
<path d="M8.63405 8.0905H9.13954C9.90777 8.0905 10.5305 7.46755 10.5305 6.69954V1.42534C10.5305 0.657335 9.90777 0.0344624 9.13954 0.0344624H8.63405C7.86589 0.0344624 7.24316 0.657335 7.24316 1.42534V6.69954C7.24316 7.46755 7.86589 8.0905 8.63405 8.0905ZM26.4749 8.05604H26.9804C27.7486 8.05604 28.3713 7.43316 28.3713 6.66508V1.39081C28.3713 0.622873 27.7486 0 26.9804 0H26.4749C25.7066 0 25.0839 0.622873 25.0839 1.39081V6.66501C25.084 7.43316 25.7068 8.05604 26.4749 8.05604Z" fill="white"/>
<path d="M33.0719 2.86108H29.5021V7.02928C29.5021 8.41973 28.371 9.18664 26.9807 9.18664H26.4752C25.0847 9.18664 23.9536 8.05543 23.9536 6.66499V2.86108H11.6613V6.69945C11.6613 8.08989 10.5302 9.22111 9.13974 9.22111H8.63425C7.24387 9.22111 6.11274 8.08989 6.11274 6.69945V2.86108H2.26126C1.01442 2.86108 0 3.8755 0 5.12241V32.4468C0 33.6937 1.01442 34.7081 2.26126 34.7081H33.0719C34.3188 34.7081 35.3331 33.6937 35.3331 32.4468V5.12241C35.3333 3.87557 34.3188 2.86108 33.0719 2.86108ZM33.0719 32.4468H2.26133L2.26126 11.8121H33.0724L33.0735 32.4467L33.0719 32.4468Z" fill="white"/>
<path d="M18.8341 18.7337H22.8943C22.9716 18.7337 23.0457 18.703 23.1004 18.6483C23.1551 18.5937 23.1858 18.5196 23.1858 18.4423V14.9264C23.1858 14.8492 23.1551 14.775 23.1004 14.7204C23.0457 14.6657 22.9716 14.635 22.8943 14.635H18.8341C18.7568 14.635 18.6827 14.6657 18.628 14.7204C18.5734 14.775 18.5427 14.8492 18.5427 14.9264V18.4423C18.5427 18.5196 18.5734 18.5937 18.628 18.6483C18.6827 18.703 18.7568 18.7337 18.8341 18.7337ZM25.4603 18.7337H29.5205C29.5978 18.7337 29.6719 18.703 29.7266 18.6483C29.7812 18.5937 29.8119 18.5196 29.8119 18.4423V14.9264C29.8119 14.8492 29.7812 14.775 29.7266 14.7204C29.6719 14.6657 29.5978 14.635 29.5205 14.635H25.4603C25.383 14.635 25.3089 14.6657 25.2542 14.7204C25.1995 14.775 25.1688 14.8492 25.1688 14.9264V18.4423C25.1688 18.5196 25.1995 18.5937 25.2542 18.6483C25.3089 18.703 25.383 18.7337 25.4603 18.7337ZM5.58196 24.4896H9.64211C9.71941 24.4896 9.79353 24.4589 9.84819 24.4042C9.90284 24.3496 9.93355 24.2754 9.93355 24.1981V20.6822C9.93355 20.605 9.90284 20.5308 9.84819 20.4762C9.79353 20.4215 9.71941 20.3908 9.64211 20.3908H5.58196C5.50467 20.3908 5.43054 20.4215 5.37589 20.4762C5.32123 20.5308 5.29053 20.605 5.29053 20.6822V24.1981C5.29053 24.2754 5.32123 24.3496 5.37589 24.4042C5.43054 24.4589 5.50467 24.4896 5.58196 24.4896ZM12.2081 24.4896H16.2682C16.3455 24.4896 16.4196 24.4589 16.4743 24.4042C16.5289 24.3496 16.5597 24.2754 16.5597 24.1981V20.6822C16.5597 20.605 16.5289 20.5308 16.4743 20.4762C16.4196 20.4215 16.3455 20.3908 16.2682 20.3908H12.2081C12.1308 20.3908 12.0566 20.4215 12.002 20.4762C11.9473 20.5308 11.9166 20.605 11.9166 20.6822V24.1981C11.9166 24.2754 11.9473 24.3496 12.002 24.4042C12.0566 24.4589 12.1308 24.4896 12.2081 24.4896ZM18.8342 24.4896H22.8943C22.9716 24.4896 23.0457 24.4589 23.1004 24.4042C23.1551 24.3496 23.1858 24.2754 23.1858 24.1981V20.6822C23.1858 20.605 23.1551 20.5308 23.1004 20.4762C23.0457 20.4215 22.9716 20.3908 22.8943 20.3908H18.8342C18.7569 20.3908 18.6827 20.4215 18.6281 20.4762C18.5734 20.5308 18.5427 20.605 18.5427 20.6822V24.1981C18.5427 24.2754 18.5734 24.3496 18.6281 24.4042C18.6827 24.4589 18.7569 24.4896 18.8342 24.4896ZM25.4603 24.4896H29.5205C29.5978 24.4896 29.6719 24.4589 29.7266 24.4042C29.7812 24.3496 29.8119 24.2754 29.8119 24.1981V20.6822C29.8119 20.605 29.7812 20.5308 29.7266 20.4762C29.6719 20.4215 29.5978 20.3908 29.5205 20.3908H25.4603C25.383 20.3908 25.3089 20.4215 25.2542 20.4762C25.1995 20.5308 25.1688 20.605 25.1688 20.6822V24.1981C25.1688 24.2754 25.1995 24.3496 25.2542 24.4042C25.3089 24.4589 25.383 24.4896 25.4603 24.4896ZM9.64211 26.1467H5.58204C5.50474 26.1467 5.43061 26.1774 5.37596 26.232C5.3213 26.2867 5.2906 26.3608 5.2906 26.4381V29.954C5.2906 30.0313 5.3213 30.1054 5.37596 30.1601C5.43061 30.2147 5.50474 30.2454 5.58204 30.2454H9.64219C9.71948 30.2454 9.79361 30.2147 9.84826 30.1601C9.90292 30.1054 9.93362 30.0313 9.93362 29.954V26.4381C9.93358 26.3608 9.90286 26.2867 9.84819 26.2321C9.79353 26.1774 9.71941 26.1467 9.64211 26.1467ZM16.2683 26.1467H12.2081C12.1308 26.1467 12.0567 26.1774 12.0021 26.232C11.9474 26.2867 11.9167 26.3608 11.9167 26.4381V29.954C11.9167 30.0313 11.9474 30.1054 12.0021 30.1601C12.0567 30.2147 12.1308 30.2454 12.2081 30.2454H16.2683C16.3456 30.2454 16.4197 30.2147 16.4744 30.1601C16.529 30.1054 16.5597 30.0313 16.5597 29.954V26.4381C16.5597 26.3608 16.529 26.2867 16.4744 26.232C16.4197 26.1774 16.3456 26.1467 16.2683 26.1467ZM22.8945 26.1467H18.8342C18.7569 26.1467 18.6828 26.1774 18.6282 26.232C18.5735 26.2867 18.5428 26.3608 18.5428 26.4381V29.954C18.5428 30.0313 18.5735 30.1054 18.6282 30.1601C18.6828 30.2147 18.7569 30.2454 18.8342 30.2454H22.8945C22.9718 30.2454 23.0459 30.2147 23.1005 30.1601C23.1552 30.1054 23.1859 30.0313 23.1859 29.954V26.4381C23.1859 26.3608 23.1552 26.2867 23.1005 26.232C23.0459 26.1774 22.9718 26.1467 22.8945 26.1467ZM29.5205 26.1467H25.4603C25.383 26.1467 25.3089 26.1774 25.2542 26.232C25.1995 26.2867 25.1688 26.3608 25.1688 26.4381V29.954C25.1688 30.0313 25.1995 30.1054 25.2542 30.1601C25.3089 30.2147 25.383 30.2454 25.4603 30.2454H29.5205C29.5978 30.2454 29.6719 30.2147 29.7266 30.1601C29.7812 30.1054 29.8119 30.0313 29.8119 29.954V26.4381C29.8119 26.3608 29.7812 26.2867 29.7266 26.232C29.6719 26.1774 29.5978 26.1467 29.5205 26.1467Z" fill="white"/>
</svg>
