<svg width="33" height="32" viewBox="0 0 33 32" fill="none" xmlns="http://www.w3.org/2000/svg">
<g clip-path="url(#clip0_1_266)">
<path d="M22.5842 3.72001C17.637 -1.22712 9.5872 -1.22702 4.63997 3.72001C-0.307258 8.66724 -0.307257 16.7169 4.63997 21.6641C8.83702 25.8611 15.0791 26.4967 19.9535 23.5727C19.9535 23.5727 20.3059 23.3627 20.5893 23.6463C22.2076 25.2646 27.0629 30.1199 27.0629 30.1199C28.3513 31.4084 30.153 31.7152 31.2958 30.5725L31.4924 30.3758C32.6352 29.2331 32.3286 27.4314 31.0401 26.143C31.0401 26.143 26.195 21.298 24.5801 19.683C24.2828 19.3857 24.4929 19.0334 24.4929 19.0334C27.4168 14.1591 26.7813 7.91706 22.5842 3.72001ZM20.2416 19.3215C16.5861 22.977 10.6383 22.9769 6.98278 19.3214C3.32738 15.666 3.32728 9.71812 6.98278 6.06272C10.6382 2.40723 16.5861 2.40723 20.2416 6.06272C23.8969 9.71822 23.8969 15.666 20.2416 19.3215Z" fill="#50799E"/>
<path d="M12.8593 18.512C12.8593 18.6822 12.8258 18.8552 12.7554 19.0219C12.4736 19.6878 11.7052 19.9994 11.0391 19.7176C6.85263 17.946 4.88798 13.0989 6.65952 8.91255C6.94137 8.24658 7.70979 7.93501 8.37585 8.21687C9.04191 8.49882 9.35329 9.26704 9.07153 9.9333C7.8629 12.7896 9.20339 16.0969 12.0597 17.3054C12.5592 17.5169 12.8593 18.0018 12.8593 18.512Z" fill="#1AA5C0"/>
</g>
<defs>
<clipPath id="clip0_1_266">
<rect width="31.2704" height="31.2704" fill="white" transform="translate(0.929688 31.2803) rotate(-90)"/>
</clipPath>
</defs>
</svg>
