<svg width="18" height="26" viewBox="0 0 18 26" fill="none" xmlns="http://www.w3.org/2000/svg">
<path fill-rule="evenodd" clip-rule="evenodd" d="M15.88 4.11316C16.7158 4.11316 17.3917 4.78637 17.3917 5.62496V24.4881C17.3917 25.3229 16.7148 25.9999 15.8804 25.9999H1.5445C0.708846 25.9999 0.0332031 25.3266 0.0332031 24.4881V5.62501C0.0332031 4.78927 0.706454 4.11321 1.54487 4.11321H3.05206V5.24568C3.05206 6.49589 4.06668 7.50942 5.31575 7.50942H12.1091C13.3593 7.50942 14.3728 6.494 14.3728 5.24568V4.11316H15.88ZM14.3709 16.1922C14.3709 15.9818 14.2022 15.8113 13.9944 15.8113H3.4305C3.22256 15.8113 3.05399 15.9786 3.05399 16.1922V16.9398C3.05399 17.1502 3.22276 17.3207 3.4305 17.3207H13.9944C14.2024 17.3207 14.3709 17.1534 14.3709 16.9398V16.1922ZM14.3709 19.211C14.3709 19.0006 14.2022 18.8302 13.9944 18.8302H3.4305C3.22256 18.8302 3.05399 18.9975 3.05399 19.211V19.9587C3.05399 20.1691 3.22276 20.3396 3.4305 20.3396H13.9944C14.2024 20.3396 14.3709 20.1723 14.3709 19.9587V19.211ZM14.3709 22.2299C14.3709 22.0195 14.2022 21.849 13.9944 21.849H3.4305C3.22256 21.849 3.05399 22.0163 3.05399 22.2299V22.9775C3.05399 23.1879 3.22276 23.3584 3.4305 23.3584H13.9944C14.2024 23.3584 14.3709 23.1911 14.3709 22.9775V22.2299ZM10.8256 1.3962C10.3375 0.745305 9.62748 0.3396 8.71247 0.3396C7.79746 0.3396 7.08743 0.745305 6.59926 1.3962C6.49192 1.539 6.39662 1.69047 6.31435 1.84905H5.31848C4.48061 1.84905 3.80681 2.52352 3.80681 3.3585V5.24346C3.80681 6.07924 4.48316 6.75471 5.3181 6.75471H12.1068C12.9417 6.75471 13.6181 6.07815 13.6181 5.24346V3.35846C13.6181 2.52197 12.9414 1.84901 12.1064 1.84901H11.1106C11.0283 1.69046 10.933 1.539 10.8256 1.3962ZM5.31622 3.35846H6.82567C6.99398 3.35846 7.15746 3.3022 7.29013 3.19862C7.4228 3.09504 7.51703 2.95008 7.55785 2.78679C7.58268 2.68739 7.664 2.49223 7.80677 2.30186C8.02617 2.00935 8.30672 1.84901 8.71243 1.84901C9.11813 1.84901 9.39868 2.00931 9.61808 2.30186C9.76085 2.49223 9.84218 2.68739 9.86701 2.78679C9.90783 2.95007 10.0021 3.09503 10.1347 3.19861C10.2674 3.30219 10.4309 3.35845 10.5992 3.35846H12.1064L12.1086 5.24342L5.31802 5.24526L5.31622 3.35846ZM8.73604 14.1851C10.1698 14.1851 11.3321 13.0228 11.3321 11.589C11.3321 10.1553 10.1698 8.99299 8.73604 8.99299C7.30229 8.99299 6.14 10.1553 6.14 11.589C6.14 13.0228 7.30229 14.1851 8.73604 14.1851Z" fill="#6B7280"/>
</svg>
