<svg width="29" height="29" viewBox="0 0 29 29" fill="none" xmlns="http://www.w3.org/2000/svg">
<g clip-path="url(#clip0_1_922)">
<path d="M22.9583 14.5557C22.2901 14.5557 21.75 15.0971 21.75 15.7639V25.4307C21.75 26.0964 21.2086 26.6389 20.5417 26.6389H3.625C2.95794 26.6389 2.41674 26.0964 2.41674 25.4307V8.51392C2.41674 7.84816 2.95794 7.30566 3.625 7.30566H13.2917C13.9599 7.30566 14.5 6.76429 14.5 6.0974C14.5 5.43034 13.9599 4.88892 13.2917 4.88892H3.625C1.62644 4.88892 0 6.51535 0 8.51392V25.4307C0 27.4293 1.62644 29.0557 3.625 29.0557H20.5417C22.5403 29.0557 24.1667 27.4293 24.1667 25.4307V15.7639C24.1667 15.0958 23.6264 14.5557 22.9583 14.5557Z" fill="white"/>
<path d="M11.3294 13.4549C11.2454 13.5393 11.1879 13.6463 11.1639 13.7629L10.3096 18.0358C10.2698 18.2338 10.3326 18.438 10.4751 18.5818C10.5314 18.6379 10.5981 18.6823 10.6715 18.7125C10.7449 18.7428 10.8236 18.7583 10.903 18.7582C10.9415 18.7582 10.9815 18.7546 11.0214 18.7462L15.2929 17.892C15.4112 17.8676 15.5187 17.811 15.6022 17.7262L25.1625 8.16586L20.891 3.89459L11.3294 13.4549ZM28.1156 0.940277C26.9376 -0.237905 25.0211 -0.237905 23.8441 0.940277L22.1718 2.61248L26.4433 6.88397L28.1156 5.21155C28.6859 4.64248 29.0001 3.88355 29.0001 3.07642C29.0001 2.26929 28.6859 1.51042 28.1156 0.940277Z" fill="white"/>
</g>
<defs>
<clipPath id="clip0_1_922">
<rect width="29" height="29" fill="white"/>
</clipPath>
</defs>
</svg>
