<svg width="30" height="29" viewBox="0 0 30 29" fill="none" xmlns="http://www.w3.org/2000/svg">
<path d="M15.3819 2.50305C12.9921 2.50305 10.6559 3.18729 8.66878 4.46924C6.68169 5.75119 5.13294 7.57327 4.21838 9.70508C3.30382 11.8369 3.06453 14.1827 3.53077 16.4458C3.99701 18.7089 5.14783 20.7877 6.83772 22.4193C8.5276 24.0509 10.6806 25.1621 13.0246 25.6122C15.3685 26.0624 17.7981 25.8313 20.006 24.9483C22.214 24.0653 24.1011 22.5699 25.4288 20.6514C26.7566 18.7328 27.4653 16.4772 27.4653 14.1697C27.4617 11.0766 26.1875 8.11108 23.9222 5.92389C21.6569 3.7367 18.5855 2.50645 15.3819 2.50305ZM15.3819 8.33639C16.0989 8.33639 16.7997 8.54166 17.3959 8.92624C17.992 9.31083 18.4566 9.85745 18.731 10.497C19.0054 11.1365 19.0771 11.8403 18.9373 12.5192C18.7974 13.1981 18.4522 13.8218 17.9452 14.3113C17.4382 14.8007 16.7923 15.1341 16.0891 15.2691C15.3859 15.4042 14.6571 15.3349 13.9947 15.07C13.3323 14.8051 12.7662 14.3565 12.3678 13.7809C11.9695 13.2053 11.7569 12.5286 11.7569 11.8364C11.7569 10.9081 12.1388 10.0179 12.8187 9.36151C13.4985 8.70513 14.4205 8.33639 15.3819 8.33639ZM15.3819 23.5031C13.2543 23.5053 11.1733 22.9014 9.39946 21.7671C9.53966 20.639 10.1026 19.5995 10.9821 18.8446C11.8616 18.0898 12.9969 17.6719 14.1736 17.6697H16.5903C17.767 17.6719 18.9022 18.0898 19.7817 18.8446C20.6612 19.5995 21.2242 20.639 21.3644 21.7671C19.5906 22.9014 17.5095 23.5053 15.3819 23.5031Z" fill="#1AA5C0"/>
</svg>
