<svg width="21" height="12" viewBox="0 0 21 12" fill="none" xmlns="http://www.w3.org/2000/svg">
<path d="M11.9266 10.5902C12.0242 10.497 12.1065 10.3939 12.1781 10.2868L19.6525 3.09826C20.3813 2.39667 20.3817 1.25963 19.6522 0.55771C18.923 -0.143877 17.7403 -0.143877 17.0104 0.55771L10.5734 6.74891L4.10247 0.526439C3.37364 -0.175481 2.19062 -0.175481 1.46075 0.526439C1.09651 0.877399 0.914219 1.33681 0.914219 1.79622C0.914219 2.25562 1.09651 2.71603 1.46145 3.06599L8.96873 10.2868C9.04033 10.3939 9.12232 10.4967 9.22021 10.5902C9.59379 10.9495 10.0843 11.1218 10.5734 11.1138C11.0629 11.1221 11.5541 10.9495 11.9266 10.5902Z" fill="#335D84"/>
</svg>
